HIERARCHY
ROOT Hips
{
	OFFSET 0.00000 0.00000 0.00000
	CHANNELS 6 Xposition Yposition Zposition Zrotation Yrotation Xrotation 
	JOINT LHipJoint
	{
		OFFSET 0 0 0
		CHANNELS 3 Zrotation Yrotation Xrotation
		JOINT LeftUpLeg
		{
			OFFSET 1.75344 -1.53157 0.77399
			CHANNELS 3 Zrotation Yrotation Xrotation
			JOINT LeftLeg
			{
				OFFSET 2.25415 -6.19323 0.00000
				CHANNELS 3 Zrotation Yrotation Xrotation
				JOINT LeftFoot
				{
					OFFSET 2.30342 -6.32861 0.00000
					CHANNELS 3 Zrotation Yrotation Xrotation
					JOINT LeftToeBase
					{
						OFFSET 0.10958 -0.30108 1.49206
						CHANNELS 3 Zrotation Yrotation Xrotation
						End Site
						{
							OFFSET 0.00000 -0.00000 0.77783
						}
					}
				}
			}
		}
	}
	JOINT RHipJoint
	{
		OFFSET 0 0 0
		CHANNELS 3 Zrotation Yrotation Xrotation
		JOINT RightUpLeg
		{
			OFFSET -1.81912 -1.53156 0.77399
			CHANNELS 3 Zrotation Yrotation Xrotation
			JOINT RightLeg
			{
				OFFSET -2.22882 -6.12365 0.00000
				CHANNELS 3 Zrotation Yrotation Xrotation
				JOINT RightFoot
				{
					OFFSET -2.21943 -6.09785 0.00000
					CHANNELS 3 Zrotation Yrotation Xrotation
					JOINT RightToeBase
					{
						OFFSET -0.18931 -0.52012 1.59379
						CHANNELS 3 Zrotation Yrotation Xrotation
						End Site
						{
							OFFSET -0.00000 -0.00000 0.84686
						}
					}
				}
			}
		}
	}
	JOINT LowerBack
	{
		OFFSET 0 0 0
		CHANNELS 3 Zrotation Yrotation Xrotation
		JOINT Spine
		{
			OFFSET -0.00200 1.66634 -0.14248
			CHANNELS 3 Zrotation Yrotation Xrotation
			JOINT Spine1
			{
				OFFSET -0.00875 1.64542 0.09514
				CHANNELS 3 Zrotation Yrotation Xrotation
				JOINT Neck
				{
					OFFSET 0 0 0
					CHANNELS 3 Zrotation Yrotation Xrotation
					JOINT Neck1
					{
						OFFSET 0.02257 1.59605 0.00839
						CHANNELS 3 Zrotation Yrotation Xrotation
						JOINT Head
						{
							OFFSET -0.10214 1.57530 -0.23335
							CHANNELS 3 Zrotation Yrotation Xrotation
							End Site
							{
								OFFSET -0.03588 1.60717 -0.08062
							}
						}
					}
				}
				JOINT LeftShoulder
				{
					OFFSET 0 0 0
					CHANNELS 3 Zrotation Yrotation Xrotation
					JOINT LeftArm
					{
						OFFSET 2.54983 1.10186 0.40078
						CHANNELS 3 Zrotation Yrotation Xrotation
						JOINT LeftForeArm
						{
							OFFSET 4.28840 -0.00000 0.00000
							CHANNELS 3 Zrotation Yrotation Xrotation
							JOINT LeftHand
							{
								OFFSET 3.06552 -0.00000 -0.00000
								CHANNELS 3 Zrotation Yrotation Xrotation
								JOINT LeftFingerBase
								{
									OFFSET 0 0 0
									CHANNELS 3 Zrotation Yrotation Xrotation
									JOINT LeftHandIndex1
									{
										OFFSET 0.75304 -0.00000 0.00000
										CHANNELS 3 Zrotation Yrotation Xrotation
										End Site
										{
											OFFSET 0.60712 -0.00000 0.00000
										}
									}
								}
								JOINT LThumb
								{
									OFFSET 0 0 0
									CHANNELS 3 Zrotation Yrotation Xrotation
									End Site
									{
										OFFSET 0.61639 -0.00000 0.61639
									}
								}
							}
						}
					}
				}
				JOINT RightShoulder
				{
					OFFSET 0 0 0
					CHANNELS 3 Zrotation Yrotation Xrotation
					JOINT RightArm
					{
						OFFSET -2.60909 1.35448 0.21802
						CHANNELS 3 Zrotation Yrotation Xrotation
						JOINT RightForeArm
						{
							OFFSET -4.52172 -0.00000 -0.00000
							CHANNELS 3 Zrotation Yrotation Xrotation
							JOINT RightHand
							{
								OFFSET -2.89140 -0.00000 0.00000
								CHANNELS 3 Zrotation Yrotation Xrotation
								JOINT RightFingerBase
								{
									OFFSET 0 0 0
									CHANNELS 3 Zrotation Yrotation Xrotation
									JOINT RightHandIndex1
									{
										OFFSET -0.68054 -0.00000 0.00000
										CHANNELS 3 Zrotation Yrotation Xrotation
										End Site
										{
											OFFSET -0.54867 -0.00000 0.00000
										}
									}
								}
								JOINT RThumb
								{
									OFFSET 0 0 0
									CHANNELS 3 Zrotation Yrotation Xrotation
									End Site
									{
										OFFSET -0.55705 -0.00000 0.55705
									}
								}
							}
						}
					}
				}
			}
		}
	}
}
MOTION
Frames: 15
Frame Time: .0083333
8.0261 14.6851 42.2213 0 0 0 0 0 0 -21 0 0 0 0 0 0 0 0 0 0 0 0 0 0 21 0 0 0 0 0 0 0 0 0 0 0 0 0 0 0 0 0 0 0 0 0 0 -16 0 0 21 0 0 11 0 0 0 -8 0 0 0 0 0 0 0 0 0 0 0 0 0 0 0 0 0 0 0 0 8 0 0 0 0 0 0 0 0 0 0 0 0 0 0 0 0 0
8.0261 14.6851 42.2213 175.3610 -1.8415 170.6000 0.0000 0.0000 0.0000 -35.9764 -6.8560 1.5701 2.8451 10.4399 30.4133 2.3471 3.9526 -30.5581 0.5908 -4.9211 -13.6836 0.0000 0.0000 0.0000 14.0415 6.2106 -2.4711 -5.1243 -13.5224 41.3570 -2.6036 -7.7568 -33.9717 -0.8674 5.9386 -16.6063 8.2603 4.4533 2.4477 -2.2050 6.1485 -4.7189 -7.3035 2.5780 -5.2143 5.9262 16.1295 -4.1653 4.3753 17.3235 41.9384 2.7864 7.0220 15.6707 -0.0000 0.0000 0.0000 -85.5659 20.8303 18.1332 18.5177 -28.8149 -4.7961 -0.0000 -0.0000 18.3385 7.9232 -32.0603 -4.2250 -7.1250 0.0000 -0.0000 -13.4182 -1.5571 14.1681 -0.0000 0.0000 0.0000 79.6228 -15.7924 64.2118 -16.7407 26.5147 -3.9709 0.0000 0.0000 17.1809 -10.7113 -51.9502 8.4722 7.1250 -0.0000 -0.0000 63.5964 -74.8929 -48.8946
8.0219 14.6841 42.2271 175.3360 -1.6486 170.6930 0.0000 0.0000 0.0000 -35.9920 -6.8239 1.3471 2.8579 10.4613 30.4840 2.3569 4.0833 -30.6773 0.6182 -5.0317 -13.9989 0.0000 0.0000 0.0000 13.9825 6.4118 -2.6798 -5.1608 -13.5626 41.5128 -2.6146 -7.6193 -33.9570 -0.8926 6.0220 -16.8483 8.2699 4.6103 2.5068 -2.2147 6.3636 -4.7560 -7.3332 2.6805 -5.2463 6.0600 16.1082 -4.0437 4.0319 17.4473 41.6633 2.6259 7.0807 15.5688 0.0000 -0.0000 0.0000 -85.4626 20.7331 18.3875 18.5725 -28.8841 -4.8226 -0.0000 -0.0000 18.2925 7.6841 -31.8895 -4.0770 -7.1250 0.0000 -0.0000 -13.5424 -1.3620 14.2612 0.0000 -0.0000 0.0000 79.7257 -15.8190 63.4859 -16.8329 26.6370 -4.0121 0.0000 0.0000 16.8736 -11.2004 -51.9520 8.8629 7.1250 -0.0000 -0.0000 63.3353 -75.0792 -48.8624
8.0181 14.6811 42.2400 175.2880 -1.4457 170.7260 0.0000 0.0000 0.0000 -36.0084 -6.6895 1.1506 2.8596 10.4642 30.4935 2.3508 4.1292 -30.6615 0.6096 -4.9974 -13.9011 0.0000 0.0000 0.0000 13.9228 6.6443 -2.8038 -5.1776 -13.5810 41.5844 -2.6218 -7.5597 -33.9647 -0.9004 6.0473 -16.9218 8.2665 4.7239 2.7589 -2.2200 6.5384 -4.8346 -7.3731 2.7524 -5.4425 6.1829 16.1265 -3.8721 3.7676 17.5871 41.4509 2.4991 7.1457 15.4772 -0.0000 -0.0000 0.0000 -85.4406 20.7482 18.5478 18.6210 -28.9451 -4.8461 -0.0000 -0.0000 18.3114 10.5131 -32.0340 -5.6217 -7.1250 0.0000 -0.0000 -11.9685 -1.8716 12.6283 -0.0000 -0.0000 0.0000 79.6734 -15.9640 63.1639 -17.0034 26.8623 -4.0889 0.0000 0.0000 16.6169 -13.1693 -51.5978 10.3906 7.1250 -0.0000 -0.0000 60.9573 -75.7027 -47.4113
8.0193 14.6831 42.2439 175.1900 -1.9718 170.8690 0.0000 0.0000 0.0000 -36.0972 -6.8799 1.0960 2.8600 10.4649 30.4956 2.3448 3.9404 -30.5391 0.6268 -5.0663 -14.0977 0.0000 0.0000 0.0000 13.8248 6.5175 -2.8575 -5.1848 -13.5889 41.6149 -2.6463 -7.9169 -34.2963 -0.8710 5.9506 -16.6411 8.0405 4.6331 2.6161 -2.2788 6.3837 -4.8798 -7.2928 2.6798 -5.4517 6.1438 16.1423 -3.8467 3.7534 17.6487 41.3529 2.5005 7.1791 15.4178 -0.0000 0.0000 0.0000 -85.4170 20.7031 18.6474 18.6320 -28.9588 -4.8514 -0.0000 -0.0000 18.3739 9.8027 -32.0242 -5.2349 -7.1250 0.0000 -0.0000 -12.3658 -1.7648 13.0447 -0.0000 0.0000 0.0000 79.7079 -16.0386 62.8586 -17.0859 26.9708 -4.1262 0.0000 0.0000 16.2539 -13.9385 -51.3163 10.9645 7.1250 -0.0000 -0.0000 59.4683 -75.8905 -46.2929
8.0185 14.6867 42.2429 175.1330 -2.3766 170.9900 0.0000 0.0000 0.0000 -36.1850 -7.1232 1.1179 2.8547 10.4560 30.4664 2.3449 3.8404 -30.4943 0.6480 -5.1493 -14.3349 0.0000 0.0000 0.0000 13.7571 6.3970 -2.8983 -5.1830 -13.5870 41.6074 -2.6253 -8.3325 -34.4141 -0.8104 5.7449 -16.0461 7.9395 4.6305 2.4027 -2.4110 6.3473 -4.8461 -7.3515 2.6731 -5.2948 6.2641 16.1009 -3.9608 3.7290 17.6161 41.2110 2.4787 7.2058 15.3912 0.0000 -0.0000 0.0000 -85.1726 20.4780 18.9864 18.7223 -29.0721 -4.8952 -0.0000 -0.0000 17.9708 10.3333 -32.2342 -5.5547 -7.1250 0.0000 -0.0000 -12.0835 -2.0425 12.7904 0.0000 -0.0000 0.0000 80.0721 -15.9507 62.0802 -17.0538 26.9286 -4.1117 0.0000 0.0000 16.0560 -12.3476 -51.5572 9.7290 7.1250 -0.0000 -0.0000 61.2800 -75.3703 -47.3484
8.0166 14.6869 42.2414 175.1560 -2.7012 170.8300 0.0000 0.0000 0.0000 -36.2277 -7.1853 1.3997 2.8449 10.4396 30.4123 2.3450 3.6931 -30.4291 0.6240 -5.0549 -14.0653 0.0000 0.0000 0.0000 13.8131 6.2332 -2.6267 -5.1703 -13.5730 41.5532 -2.6344 -8.3506 -34.4746 -0.7735 5.6155 -15.6727 7.9938 4.7135 2.4513 -2.6207 6.4629 -4.6659 -7.6011 2.7481 -5.0812 6.5944 15.9252 -4.3684 3.6418 17.3722 41.1074 2.4090 7.1675 15.4869 -0.0000 0.0000 0.0000 -84.6083 20.0052 19.7204 18.9609 -29.3701 -5.0117 -0.0000 -0.0000 16.8967 9.4530 -31.9408 -5.0339 -7.1250 0.0000 -0.0000 -12.5561 -1.6366 13.2278 -0.0000 0.0000 0.0000 80.7408 -15.7981 60.8174 -17.0279 26.8946 -4.1000 0.0000 0.0000 15.8951 -9.2629 -52.0118 7.3245 7.1250 -0.0000 -0.0000 64.6050 -74.3692 -49.2248
8.0152 14.6922 42.2413 175.1650 -2.5976 170.8950 0.0000 0.0000 0.0000 -36.1858 -7.1002 1.3056 2.8367 10.4259 30.3674 2.3463 3.7351 -30.4558 0.6229 -5.0505 -14.0526 0.0000 0.0000 0.0000 13.8986 6.5204 -2.5908 -5.1577 -13.5592 41.4994 -2.6511 -8.3366 -34.5580 -0.8351 5.8297 -16.2912 7.9356 4.6886 2.3410 -2.4505 6.4227 -4.7164 -7.3786 2.7292 -5.1038 6.3351 16.0357 -4.0779 3.5483 17.6135 41.0684 2.4057 7.2147 15.3798 0.0000 -0.0000 0.0000 -85.0725 20.1180 19.1467 18.8448 -29.2254 -4.9548 -0.0000 -0.0000 17.6116 10.8270 -32.5759 -5.8791 -7.1250 0.0000 -0.0000 -11.8335 -2.4464 12.5950 0.0000 -0.0000 0.0000 80.3590 -15.9499 60.9458 -17.1620 27.0709 -4.1608 0.0000 0.0000 15.1541 -9.4692 -51.5256 7.4395 7.1250 -0.0000 -0.0000 62.8550 -74.2666 -47.5597
8.0154 14.6903 42.2484 175.2250 -2.8461 170.6490 0.0000 0.0000 0.0000 -36.2117 -7.1945 1.6296 2.8325 10.4189 30.3441 2.3469 3.7532 -30.4675 0.6272 -5.0676 -14.1016 0.0000 0.0000 0.0000 14.0460 6.4254 -2.2502 -5.1441 -13.5443 41.4418 -2.6516 -8.7062 -34.7715 -0.8505 5.8817 -16.4417 8.1059 4.6941 2.6475 -2.5912 6.4686 -4.5696 -7.6471 2.7545 -5.0828 6.4171 15.9645 -4.4898 3.6379 17.4801 41.1400 2.4597 7.1884 15.5064 -0.0000 -0.0000 0.0000 -84.7434 19.7707 19.5595 18.9533 -29.3607 -5.0080 -0.0000 -0.0000 17.0766 10.0949 -32.5079 -5.4654 -7.1250 0.0000 -0.0000 -12.2362 -2.2771 13.0084 -0.0000 -0.0000 0.0000 80.7538 -15.8429 60.2510 -17.2219 27.1494 -4.1881 0.0000 0.0000 14.2434 -12.7211 -50.1064 9.8262 7.1250 -0.0000 -0.0000 56.0017 -74.8915 -42.2747
8.0129 14.6871 42.2561 175.2570 -3.0866 170.4730 0.0000 0.0000 0.0000 -36.2945 -7.4021 1.8966 2.8311 10.4165 30.3364 2.3429 3.6966 -30.4178 0.5743 -4.8532 -13.4904 0.0000 0.0000 0.0000 14.0803 6.2169 -2.0945 -5.1481 -13.5486 41.4585 -2.6386 -8.9590 -34.8476 -0.8183 5.7723 -16.1251 8.2596 4.6167 2.9042 -2.6148 6.3981 -4.5864 -7.7846 2.7033 -5.2439 6.3077 16.0020 -4.3632 3.7765 17.4920 41.1853 2.5183 7.1898 15.4660 0.0000 -0.0000 0.0000 -84.7921 19.8818 19.4684 18.8674 -29.2536 -4.9659 -0.0000 -0.0000 17.5840 11.0167 -32.6989 -6.0039 -7.1250 0.0000 -0.0000 -11.7374 -2.5939 12.5175 0.0000 -0.0000 0.0000 80.8513 -16.0178 59.6374 -17.2461 27.1811 -4.1991 0.0000 0.0000 13.9285 -12.9796 -49.8206 9.9876 7.1250 -0.0000 -0.0000 54.8651 -74.8534 -41.2714
8.0067 14.6878 42.2577 175.2460 -3.2262 170.5860 0.0000 0.0000 0.0000 -36.2920 -7.4136 1.7419 2.8344 10.4220 30.3545 2.3308 3.5752 -30.2901 0.6266 -5.0655 -14.0954 0.0000 0.0000 0.0000 14.0222 6.1485 -2.2346 -5.1494 -13.5501 41.4642 -2.6254 -9.0361 -34.8211 -0.8783 5.9748 -16.7113 8.3049 4.7049 2.8545 -2.7730 6.5050 -4.5935 -7.9768 2.7540 -5.1804 6.4623 15.8907 -4.5349 3.7949 17.3244 41.0478 2.4948 7.1689 15.4522 -0.0000 -0.0000 0.0000 -84.5211 19.6248 19.5842 18.9106 -29.3075 -4.9870 -0.0000 -0.0000 17.3421 9.9227 -32.5098 -5.3711 -7.1250 0.0000 -0.0000 -12.3322 -2.2552 13.1108 -0.0000 -0.0000 0.0000 81.3027 -16.0756 58.4288 -17.2322 27.1629 -4.1928 0.0000 0.0000 14.0860 -10.6598 -50.7063 8.2879 7.1250 -0.0000 -0.0000 59.4005 -74.3799 -44.6641
7.9981 14.6797 42.2695 175.0930 -2.6969 170.5150 0.0000 0.0000 0.0000 -36.4066 -7.0098 1.5321 2.8376 10.4275 30.3724 2.3258 3.8345 -30.3749 0.7183 -5.4159 -15.0986 0.0000 0.0000 0.0000 13.8397 6.5107 -2.3347 -5.1695 -13.5721 41.5497 -2.6005 -8.8761 -34.5914 -1.0092 6.3921 -17.9263 8.2539 4.6591 3.1021 -2.4681 6.4780 -4.7103 -7.6566 2.7249 -5.4914 5.9545 16.1487 -4.0221 3.8016 17.7517 41.1948 2.5716 7.2416 15.3415 0.0000 -0.0000 0.0000 -85.2485 20.5310 19.6788 19.3231 -29.8182 -5.1905 -0.0000 -0.0000 17.0255 11.0914 -32.2687 -5.9749 -7.1250 0.0000 -0.0000 -11.6621 -2.1832 12.3529 0.0000 -0.0000 0.0000 80.3890 -16.2963 59.0369 -17.3833 27.3603 -4.2620 0.0000 0.0000 13.1633 -9.1360 -51.3993 7.1635 7.1250 -0.0000 -0.0000 62.6372 -74.0930 -47.1795
8.0058 14.6750 42.2635 175.0900 -3.1467 170.3370 0.0000 0.0000 0.0000 -36.4432 -7.0633 1.8793 2.8365 10.4256 30.3661 2.3309 3.6761 -30.3353 0.7289 -5.4549 -15.2106 0.0000 0.0000 0.0000 13.9584 6.3373 -1.9838 -5.1825 -13.5865 41.6054 -2.6270 -9.1409 -34.8914 -1.0305 6.4570 -18.1164 8.1189 4.7267 2.9932 -2.7050 6.5453 -4.4273 -7.8050 2.7994 -5.1006 6.3506 15.9437 -4.6999 3.7818 17.4215 41.2310 2.5445 7.1757 15.5699 -0.0000 0.0000 0.0000 -84.5502 20.0567 20.7047 19.4448 -29.9677 -5.2512 -0.0000 -0.0000 16.4357 11.0547 -32.0926 -5.9260 -7.1250 0.0000 -0.0000 -11.6692 -2.0053 12.3254 -0.0000 0.0000 0.0000 81.1510 -15.9429 57.6640 -17.4033 27.3864 -4.2712 0.0000 0.0000 12.2964 -9.6248 -50.9637 7.5039 7.1250 -0.0000 -0.0000 60.9127 -74.1003 -45.6787
7.9982 14.6776 42.2663 174.9750 -3.0408 170.5530 0.0000 0.0000 0.0000 -36.5648 -7.1359 1.6400 2.8347 10.4226 30.3564 2.3387 3.6773 -30.3834 0.6974 -5.3382 -14.8757 0.0000 0.0000 0.0000 13.8001 6.5440 -2.2712 -5.2065 -13.6126 41.7072 -2.6121 -9.3323 -34.9240 -1.0875 6.6277 -18.6170 8.1057 4.7612 2.7940 -2.6782 6.5700 -4.5063 -7.7535 2.8085 -5.0702 6.1446 16.0274 -4.4774 3.8517 17.5618 41.1706 2.5910 7.2189 15.4498 0.0000 -0.0000 0.0000 -84.8773 20.1067 20.3937 19.5456 -30.0910 -5.3016 -0.0000 -0.0000 15.8957 10.3146 -31.9575 -5.5022 -7.1250 0.0000 -0.0000 -12.0744 -1.7693 12.7240 0.0000 -0.0000 0.0000 80.9657 -16.0090 57.4424 -17.5229 27.5419 -4.3263 0.0000 0.0000 11.5912 -9.8493 -50.6288 7.6442 7.1250 -0.0000 -0.0000 59.6860 -74.0422 -44.5540
7.9960 14.6767 42.2685 174.9080 -2.9097 170.4810 0.0000 0.0000 0.0000 -36.6141 -6.9557 1.6261 2.8344 10.4220 30.3543 2.3483 3.7169 -30.4601 0.7425 -5.5044 -15.3531 0.0000 0.0000 0.0000 13.7733 6.7052 -2.1850 -5.2149 -13.6218 41.7429 -2.6465 -9.2884 -35.0837 -1.0415 6.4905 -18.2144 8.0569 4.8447 2.8832 -2.7107 6.6881 -4.4260 -7.7680 2.8773 -5.0145 6.1302 15.9990 -4.6639 3.9409 17.5129 41.1386 2.6401 7.2213 15.4600 0.0000 0.0000 0.0000 -84.8994 19.8808 20.2400 19.4627 -29.9896 -5.2601 -0.0000 -0.0000 15.9151 10.5214 -32.3329 -5.6728 -7.1250 0.0000 -0.0000 -11.9856 -2.1653 12.7071 0.0000 0.0000 0.0000 81.1402 -15.8386 56.8371 -17.5126 27.5286 -4.3216 0.0000 0.0000 11.2083 -9.3568 -50.9227 7.2893 7.1250 -0.0000 -0.0000 60.9517 -73.9832 -45.5871
